<svg width="600" height="400" xmlns="http://www.w3.org/2000/svg">
  <defs>
    <linearGradient id="grad3" x1="0%" y1="0%" x2="100%" y2="100%">
      <stop offset="0%" style="stop-color:#C38E70;stop-opacity:0.15" />
      <stop offset="100%" style="stop-color:#7FA99B;stop-opacity:0.15" />
    </linearGradient>
  </defs>
  <rect width="600" height="400" fill="#FBF8F3"/>
  <rect width="600" height="400" fill="url(#grad3)"/>
  
  <!-- Graduate Figure with Cap -->
  <circle cx="300" cy="140" r="50" fill="#D97757" opacity="0.8"/>
  
  <!-- Graduation Cap -->
  <rect x="250" y="90" width="100" height="10" rx="2" fill="#2C2C2C" opacity="0.8"/>
  <polygon points="220,90 380,90 300,60" fill="#2C2C2C" opacity="0.7"/>
  <rect x="295" y="60" width="10" height="35" fill="#E8A87C" opacity="0.8"/>
  <circle cx="300" cy="95" r="8" fill="#C38E70" opacity="0.9"/>
  
  <!-- Body with Formal Attire -->
  <rect x="260" y="190" width="80" height="110" rx="15" fill="#2C2C2C" opacity="0.7"/>
  <rect x="270" y="200" width="20" height="90" rx="4" fill="#FFFFFF" opacity="0.8"/>
  <rect x="240" y="235" width="40" height="85" rx="8" fill="#2C2C2C" opacity="0.6"/>
  <rect x="320" y="235" width="40" height="85" rx="8" fill="#2C2C2C" opacity="0.6"/>
  
  <!-- Briefcase -->
  <rect x="380" y="260" width="90" height="70" rx="8" fill="#C38E70" opacity="0.8"/>
  <rect x="415" y="250" width="20" height="20" rx="10" fill="#C38E70" opacity="0.9"/>
  <rect x="395" y="270" width="60" height="8" fill="#7FA99B" opacity="0.6"/>
  
  <!-- Certificate/Document -->
  <rect x="100" y="240" width="100" height="80" rx="4" fill="#FFFFFF" opacity="0.9"/>
  <rect x="100" y="240" width="100" height="15" rx="4" fill="#D97757" opacity="0.7"/>
  <line x1="110" y1="270" x2="180" y2="270" stroke="#2C2C2C" stroke-width="2" opacity="0.3"/>
  <line x1="110" y1="285" x2="180" y2="285" stroke="#2C2C2C" stroke-width="2" opacity="0.3"/>
  <line x1="110" y1="300" x2="180" y2="300" stroke="#2C2C2C" stroke-width="2" opacity="0.3"/>
  
  <!-- Decorative Elements -->
  <circle cx="480" cy="90" r="30" fill="#6B9AC4" opacity="0.3"/>
  <circle cx="120" cy="120" r="35" fill="#E8A87C" opacity="0.3"/>
  <circle cx="520" cy="200" r="25" fill="#7FA99B" opacity="0.3"/>
</svg>
